<!-- Generated by IcoMoon.io -->
<svg version="1.1" xmlns="http://www.w3.org/2000/svg" width="1024" height="1024" viewBox="0 0 1024 1024">
<title>bookmark</title>
<g id="icomoon-ignore">
</g>
<path fill="#000" d="M109.6 446.496c0 0 772.384 0 773.536 0 18.656-8.16 17.824-25.664 0.352-37.28-17.504-11.68-387.808-278.976-387.808-278.976s-367.424 267.296-386.080 278.976c-18.624 11.616-19.808 29.12 0 37.28zM495.68 262.24c30.88 0 55.936 25.024 55.936 55.904s-25.056 55.936-55.936 55.936-55.904-25.056-55.904-55.936 25.024-55.904 55.904-55.904zM128.864 861.824h734.976v-31.264h-734.976v31.264zM288 797.952v-284.896h31.296v-35.296h-159.776v32.096h31.296v288.064h97.184zM544.96 797.952v-286.912h31.296v-31.296h-159.744v30.080h31.264v288.064h97.184zM96.96 925.76h798.816v-29.248h-798.816v29.248zM799.936 797.952v-286.912h31.296v-31.296h-159.776v30.080h31.328v288.064h97.152z"></path>
</svg>
