<!-- Generated by IcoMoon.io -->
<svg version="1.1" xmlns="http://www.w3.org/2000/svg" width="1024" height="1024" viewBox="0 0 1024 1024">
<title>bookmark</title>
<g id="icomoon-ignore">
</g>
<path fill="#000" d="M460.8 614.4h-409.6v307.2c0 56.554 45.846 102.4 102.4 102.4v0h716.8c56.554 0 102.4-45.846 102.4-102.4v0-307.2h-409.6v102.4h-102.4v-102.4zM460.8 563.2h-460.8v-307.2c0-56.32 46.080-102.4 102.4-102.4h204.8v-51.2c0-56.554 45.846-102.4 102.4-102.4v0h204.8c56.554 0 102.4 45.846 102.4 102.4v0 51.2h204.8c56.554 0 102.4 45.846 102.4 102.4v0 307.2h-460.8v-102.4h-102.4v102.4zM614.4 153.6v-51.2h-204.8v51.2h204.8z"></path>
</svg>
